<?xml version="1.0" encoding="UTF-8" standalone="no"?>
<svg
   version="1.0"
   width="2232.000000pt"
   height="801.000000pt"
   viewBox="0 0 2232.000000 801.000000"
   preserveAspectRatio="xMidYMid meet"
   id="svg10"
   sodipodi:docname="fHspNm01.svg"
   xml:space="preserve"
   inkscape:version="1.4 (86a8ad7, 2024-10-11)"
   xmlns:inkscape="http://www.inkscape.org/namespaces/inkscape"
   xmlns:sodipodi="http://sodipodi.sourceforge.net/DTD/sodipodi-0.dtd"
   xmlns="http://www.w3.org/2000/svg"
   xmlns:svg="http://www.w3.org/2000/svg"><defs
     id="defs10" /><sodipodi:namedview
     id="namedview10"
     pagecolor="#ffffff"
     bordercolor="#000000"
     borderopacity="0.25"
     inkscape:showpageshadow="2"
     inkscape:pageopacity="0.0"
     inkscape:pagecheckerboard="0"
     inkscape:deskcolor="#d1d1d1"
     inkscape:document-units="pt"
     showguides="true"
     inkscape:zoom="1.2392473"
     inkscape:cx="1862.0174"
     inkscape:cy="391.77007"
     inkscape:window-width="3840"
     inkscape:window-height="2066"
     inkscape:window-x="-11"
     inkscape:window-y="-11"
     inkscape:window-maximized="1"
     inkscape:current-layer="svg10"><sodipodi:guide
       position="529.55531,519.57918"
       orientation="1,0"
       id="guide10"
       inkscape:locked="false" /><sodipodi:guide
       position="1724.2321,333.1757"
       orientation="1,0"
       id="guide11"
       inkscape:locked="false" /><sodipodi:guide
       position="1330.243,672.09111"
       orientation="0,-1"
       id="guide12"
       inkscape:locked="false" /><sodipodi:guide
       position="1255.1974,302.3102"
       orientation="0,-1"
       id="guide13"
       inkscape:locked="false" /><sodipodi:guide
       position="1123.8677,393.09111"
       orientation="1,0"
       id="guide14"
       inkscape:locked="false" /><sodipodi:guide
       position="1172.8894,489.92408"
       orientation="0,-1"
       id="guide15"
       inkscape:locked="false" /></sodipodi:namedview><metadata
     id="metadata1">
Created by potrace 1.10, written by Peter Selinger 2001-2011
</metadata><path
     style="fill:#000000;stroke-width:0.75"
     d="M 588.08891,213.63774 C 1182.4012,395.80477 1182.4012,395.80477 1182.4012,395.80477 L 588.08891,583.41865 Z"
     id="path15" /><path
     id="path16"
     style="fill:#000000;stroke-width:0.75"
     d="m 1782.7659,213.63803 -600.3647,182.1665 600.3647,187.61426 z" /><g
     id="g41"
     style="fill:#ffffff;fill-opacity:1"><path
       id="use1409"
       style="color:#000000;overflow:visible;fill:#ffffff;fill-opacity:1;stroke:none;stroke-width:0.0775262;stroke-miterlimit:4;stroke-dasharray:none;paint-order:markers fill stroke;stop-color:#000000"
       d="m 925.04997,438.54872 -6.36072,-30.77627 h -14.95676 l 6.36072,30.77627 z"
       sodipodi:nodetypes="ccccc" /><path
       style="color:#000000;overflow:visible;fill:#ffffff;fill-opacity:1;stroke:none;stroke-width:0.0775262;stroke-miterlimit:4;stroke-dasharray:none;paint-order:markers fill stroke;stop-color:#000000"
       d="m 880.98036,448.65481 c 49.98272,-46.29749 101.63331,-74.30452 108.48259,-78.85879 1.8233,5.60473 4.42635,10.08756 7.19722,14.32893 -26.067,12.16493 -76.29846,40.71911 -108.81069,64.52986 z"
       id="path1503"
       sodipodi:nodetypes="ccccc" /><path
       style="color:#000000;overflow:visible;fill:#ffffff;fill-opacity:1;stroke:none;stroke-width:0.0775262;stroke-miterlimit:4;stroke-dasharray:none;paint-order:markers fill stroke;stop-color:#000000"
       d="m 863.80975,438.54872 18.92884,-30.47069 h 16.69646 l -18.92883,30.47069 z"
       id="path1937"
       sodipodi:nodetypes="ccccc" /><path
       id="path1941"
       style="color:#000000;overflow:visible;fill:#ffffff;fill-opacity:1;stroke:none;stroke-width:0.0775262;stroke-miterlimit:4;stroke-dasharray:none;paint-order:markers fill stroke;stop-color:#000000"
       d="m 870.14884,390.57898 -12.05742,19.40962 c 0,0 -5.59263,-5.87016 -15.6841,-2.46725 -8.93329,3.01235 -16.06882,11.36707 -16.06882,21.03112 0,8.52058 8.69103,12.20292 12.20152,12.20292 4.14855,0 15.32838,0.59068 25.98641,-16.57708 l 20.85902,-33.59933 z m -23.08759,28.66112 c 0.45536,0.0403 0.87407,0.17162 1.23719,0.38838 1.71903,1.02659 1.83168,3.69386 0.25162,5.95754 -1.58011,2.2639 -4.25482,3.26689 -5.97393,2.24015 -1.71903,-1.02657 -1.83168,-3.69384 -0.25162,-5.95755 1.20283,-1.72319 3.0957,-2.77359 4.73674,-2.62852 z"
       sodipodi:nodetypes="ccssssccccccsc" /><path
       style="color:#000000;overflow:visible;fill:#ffffff;fill-opacity:1;stroke:none;stroke-width:0.0775262;stroke-miterlimit:4;stroke-dasharray:none;paint-order:markers fill stroke;stop-color:#000000"
       d="m 774.81176,438.54872 18.92884,-30.47069 h 15.21881 l -1.72712,2.78024 c 0,0 5.84536,-3.08582 11.95437,-3.08582 5.78999,0 9.62538,4.87986 5.06053,12.2281 -4.56484,7.34827 -11.52239,18.54817 -11.52239,18.54817 h -15.42803 l 11.13284,-17.92108 c 1.01116,-1.62773 -0.68351,-2.52049 -3.12103,-2.20331 -2.08066,0.27077 -3.30826,0.85609 -4.3839,2.58761 -2.53953,4.08802 -10.89411,17.53678 -10.89411,17.53678 z"
       id="path2672"
       sodipodi:nodetypes="ccccssccssscc" /><path
       id="path3152"
       style="color:#000000;overflow:visible;fill:#ffffff;fill-opacity:1;stroke:none;stroke-width:0.0775262;stroke-miterlimit:4;stroke-dasharray:none;paint-order:markers fill stroke;stop-color:#000000"
       d="m 613.98125,355.52757 33.57247,31.54894 h 48.94996 c 0,0 -9.02502,11.9451 -18.83656,25.69238 -10.6487,14.92021 -15.79625,24.57431 -12.76391,34.06573 2.52151,7.89251 11.35923,12.44844 21.59171,12.5863 10.95137,0.14742 26.68647,-3.57669 36.35636,-13.21857 9.7927,-9.76436 10.92861,-17.9761 10.06291,-22.96135 -1.04481,-6.01671 -5.87562,-6.99861 -5.87562,-6.99861 18.49005,-6.7057 37.15647,-17.09722 41.60506,-34.20602 3.17362,-12.20538 -3.91939,-26.4669 -23.57288,-26.47181 z m 116.73307,31.24225 c 3.8677,-0.0551 6.90683,2.1296 6.46048,5.7541 -0.83744,6.80028 -14.89926,13.02723 -29.54973,11.76676 l 12.721,-17.37329 z m -30.12166,33.47816 c 2.49448,-0.0262 5.36585,0.0568 6.87287,0.49357 3.30989,0.95904 7.96078,4.50593 5.10456,9.84834 -3.09972,5.79788 -9.96966,9.47972 -18.46373,10.06989 -6.84165,0.47534 -8.50313,-4.3056 -6.73958,-8.22545 1.73424,-3.85469 8.19886,-12.15281 8.61369,-12.0249 0,0 2.1177,-0.13532 4.61219,-0.1615 z"
       sodipodi:nodetypes="cccssssscsscssccsscssscss" /><path
       id="path5009"
       style="color:#000000;overflow:visible;fill:#ffffff;fill-opacity:1;stroke:none;stroke-width:0.0775262;stroke-miterlimit:4;stroke-dasharray:none;paint-order:markers fill stroke;stop-color:#000000"
       d="m 768.58871,406.17065 c -4.68294,0.007 -9.09795,1.62052 -12.41524,3.70698 -5.6565,3.55778 -12.67077,11.19671 -12.7839,18.78312 -0.0999,6.69634 3.8181,9.88847 8.85238,11.66734 5.03428,1.77888 13.71867,0.30746 13.71867,0.30746 l 6.33175,-10.14384 c 0,0 -3.92984,2.52202 -10.99976,0.94167 -5.44206,-1.21646 -4.836,-4.68458 -4.31809,-5.98258 0.12807,-0.32099 0.55299,-0.33457 0.70357,-0.17335 1.14046,1.22062 4.11931,3.14775 8.26878,3.09553 10.5776,-0.1331 14.04036,-5.80744 14.91712,-7.14159 0.87676,-1.33415 4.15759,-9.02524 -3.4504,-12.94924 -2.91243,-1.50217 -5.92027,-2.11587 -8.82488,-2.11145 z m -0.40448,8.68316 a 2.6976743,3.846069 66.93481 0 1 2.27735,1.17172 2.6976743,3.846069 66.93481 0 1 -2.05366,4.06108 2.6976743,3.846069 66.93481 0 1 -4.80214,-0.60839 2.6976743,3.846069 66.93481 0 1 2.05366,-4.06108 2.6976743,3.846069 66.93481 0 1 2.52479,-0.56333 z" /><ellipse
       style="color:#000000;overflow:visible;fill:#ffffff;fill-opacity:1;stroke:none;stroke-width:0.0761143;stroke-miterlimit:4;stroke-dasharray:none;paint-order:markers fill stroke;stop-color:#000000"
       id="use7034"
       cx="914.28851"
       cy="-291.63065"
       rx="7.0778193"
       ry="9.4071627"
       transform="matrix(0.75267699,0.65838997,-0.71490394,0.69922268,0,0)" /></g><path
     id="path1937-8"
     style="color:#000000;overflow:visible;fill:#ffffff;fill-opacity:1;stroke:none;stroke-width:0.0775262;stroke-miterlimit:4;stroke-dasharray:none;paint-order:markers fill stroke;stop-color:#000000"
     d="M 1652.0405 388.70508 L 1645.8984 399.72949 L 1637.3979 399.53027 L 1631.7012 408.63721 L 1640.7686 408.93457 L 1626.479 434.58252 L 1643.1753 434.58252 L 1657.1646 409.47363 L 1664.6865 409.72119 L 1670.8359 400.3125 L 1662.3794 400.11475 L 1668.7368 388.70508 L 1652.0405 388.70508 z " /><path
     id="path1941-2"
     style="color:#000000;overflow:visible;fill:#ffffff;fill-opacity:1;stroke:none;stroke-width:0.0775262;stroke-miterlimit:4;stroke-dasharray:none;paint-order:markers fill stroke;stop-color:#000000"
     d="m 1535.7191,452.27799 12.0575,-19.4096 c 0,0 5.5926,5.8702 15.6841,2.4673 8.9333,-3.0124 16.0688,-11.3671 16.0688,-21.0312 0,-8.5205 -8.691,-12.2029 -12.2015,-12.2029 -4.1486,0 -15.3284,-0.5907 -25.9864,16.5771 l -20.8591,33.5993 z m 23.0876,-28.6611 c -0.4553,-0.04 -0.874,-0.1716 -1.2372,-0.3884 -1.719,-1.0266 -1.8316,-3.6938 -0.2516,-5.9575 1.5801,-2.2639 4.2548,-3.2669 5.974,-2.2402 1.719,1.0266 1.8316,3.6939 0.2516,5.9576 -1.2029,1.7232 -3.0957,2.7736 -4.7368,2.6285 z"
     sodipodi:nodetypes="ccssssccccccsc" /><path
     id="path1941-2-5"
     style="color:#000000;overflow:visible;fill:#ffffff;fill-opacity:1;stroke:none;stroke-width:0.0775262;stroke-miterlimit:4;stroke-dasharray:none;paint-order:markers fill stroke;stop-color:#000000"
     d="m 1450.3103,402.41349 c -3.3131,-0.0112 -10.5293,-0.17501 -18.4643,7.40625 -3.6564,3.91286 -5.9868,8.99799 -5.9868,14.51368 0,4.29387 2.2081,7.35544 4.8471,9.33984 0,0 2.8579,2.16415 7.604,2.86084 3.3112,0.011 10.5329,0.18007 18.4732,-7.40771 3.6556,-3.91252 5.9839,-8.99581 5.9839,-14.51075 0,-4.2939 -2.208,-7.35673 -4.8472,-9.34131 0,0 -2.8599,-2.16537 -7.6099,-2.86084 z m -5.2177,12.52735 c 0.2488,0.007 0.491,0.0423 0.7236,0.104 0.2588,-0.0317 0.5157,-0.047 0.7661,-0.0249 0.4553,0.04 0.8746,0.17285 1.2378,0.38965 1.719,1.0266 1.8305,3.69382 0.2505,5.95752 -1.3752,1.97023 -3.5784,2.98362 -5.2603,2.53711 -0.2588,0.0316 -0.5157,0.0456 -0.7661,0.0234 -0.4553,-0.04 -0.8731,-0.17138 -1.2363,-0.38818 -1.719,-1.0266 -1.832,-3.69382 -0.252,-5.95752 1.1851,-1.69792 2.985,-2.68604 4.5367,-2.64111 z"
     sodipodi:nodetypes="ccscccsccscscscscss" /><path
     style="color:#000000;overflow:visible;fill:#ffffff;fill-opacity:1;stroke:none;stroke-width:0.0775262;stroke-miterlimit:4;stroke-dasharray:none;paint-order:markers fill stroke;stop-color:#000000"
     d="m 1631.1597,404.16244 -18.9288,30.4707 h -15.2188 l 1.7271,-2.7803 c 0,0 -5.8454,3.0859 -11.9544,3.0859 -5.79,0 -9.6254,-4.8799 -5.0605,-12.2281 4.5648,-7.3483 11.5224,-18.5482 11.5224,-18.5482 h 15.428 l -11.1328,17.9211 c -1.0112,1.6277 0.6835,2.5205 3.121,2.2033 2.0807,-0.2708 3.3083,-0.8561 4.3839,-2.5876 2.5395,-4.0881 10.8941,-17.5368 10.8941,-17.5368 z"
     id="path2672-4"
     sodipodi:nodetypes="ccccssccssscc" /><path
     id="path2672-4-1"
     style="color:#000000;overflow:visible;fill:#ffffff;fill-opacity:1;stroke:none;stroke-width:0.0775262;stroke-miterlimit:4;stroke-dasharray:none;paint-order:markers fill stroke;stop-color:#000000"
     d="m 1505.334,403.0672 c -6.109,0 -11.9546,3.08642 -11.9546,3.08642 l 1.727,-2.78027 h -15.2182 l -18.9287,30.47021 h 15.2182 c 0,0 8.3546,-13.44901 10.8941,-17.53711 1.0756,-1.7315 2.3035,-2.31611 4.3842,-2.58691 2.4375,-0.3172 4.1328,0.57543 3.1216,2.20313 l -11.1328,17.92089 h 0.7471 14.6806 0.5391 c 0,0 8.3545,-13.44901 10.894,-17.53711 1.0756,-1.7315 2.3036,-2.31611 4.3843,-2.58691 2.4375,-0.3172 4.1313,0.57543 3.1201,2.20313 l -11.1328,17.92089 h 15.4278 c 0,0 6.9576,-11.19955 11.5224,-18.54785 4.5649,-7.3482 0.7305,-12.22851 -5.0595,-12.22851 -6.109,0 -11.9546,3.08642 -11.9546,3.08642 l -4.2554,2.31299 c -0.3999,-3.38506 -3.3064,-5.39941 -7.0239,-5.39941 z" /><path
     style="color:#000000;overflow:visible;fill:#ffffff;fill-opacity:1;stroke:none;stroke-width:0.0793337;stroke-miterlimit:4;stroke-dasharray:none;paint-order:markers fill stroke;stop-color:#000000"
     d="m 1696.5145,433.98835 18.9288,-31.90806 h 15.2188 l -1.7271,2.91145 c 0,0 6.5484,-2.54966 11.9009,-2.39122 5.7877,0.17132 7.3695,4.18335 3.9372,12.46882 -9.4065,0.56519 -12.6081,0.0405 -12.6081,0.0405 1.0112,-1.70448 -2.7162,-2.52736 -5.1537,-2.1952 -2.0807,0.28358 -3.3083,0.89649 -4.3839,2.70966 -2.5395,4.28095 -10.8941,18.36405 -10.8941,18.36405 z"
     id="path2672-4-7"
     sodipodi:nodetypes="ccccscssscc" /><path
     id="path5009-5"
     style="color:#000000;overflow:visible;fill:#ffffff;fill-opacity:1;stroke:none;stroke-width:0.0775262;stroke-miterlimit:4;stroke-dasharray:none;paint-order:markers fill stroke;stop-color:#000000"
     d="m 1689.685,399.53463 c -4.6829,0.007 -9.0979,1.62052 -12.4152,3.70698 -5.6565,3.55778 -12.6708,11.19671 -12.7839,18.78312 -0.1,6.69634 3.8181,9.88847 8.8524,11.66734 5.0342,1.77888 13.7186,0.30746 13.7186,0.30746 l 6.3318,-10.14384 c 0,0 -3.9299,2.52202 -10.9998,0.94167 -5.442,-1.21646 -4.836,-4.68458 -4.3181,-5.98258 0.1281,-0.32099 0.553,-0.33457 0.7036,-0.17335 1.1405,1.22062 4.1193,3.14775 8.2688,3.09553 10.5776,-0.1331 14.0403,-5.80744 14.9171,-7.14159 0.8768,-1.33415 4.1576,-9.02524 -3.4504,-12.94924 -2.9124,-1.50217 -5.9203,-2.11587 -8.8249,-2.11145 z m -0.4045,8.68316 a 2.6976743,3.846069 66.93481 0 1 2.2774,1.17172 2.6976743,3.846069 66.93481 0 1 -2.0537,4.06108 2.6976743,3.846069 66.93481 0 1 -4.8021,-0.60839 2.6976743,3.846069 66.93481 0 1 2.0536,-4.06108 2.6976743,3.846069 66.93481 0 1 2.5248,-0.56333 z" /><path
     style="fill:#ffffff;fill-opacity:1;stroke-width:0.75"
     d="m 1435.7001,367.81399 c 0,0 4.7225,-7.56076 8.4729,-14.82755 -1.5452,-6.51029 -35.4509,-14.28972 -60.9746,0.45391 -25.5236,14.74363 -44.6331,43.12237 -30.7141,65.36225 13.9191,22.23988 32.7647,23.81877 51.7451,14.82756 10.0928,-4.78103 15.9952,-16.51093 13.1632,-20.27441 -2.832,-3.76348 -32.9982,20.22745 -43.4235,1.0591 -10.4253,-19.16835 -1.8963,-35.51225 16.1893,-44.93655 18.0856,-9.4243 45.5417,-1.66431 45.5417,-1.66431 z"
     id="path41"
     sodipodi:nodetypes="cczzczzzc"
     inkscape:export-filename="..\g15-tools\src\assets\logo.png"
     inkscape:export-xdpi="36.1604"
     inkscape:export-ydpi="36.1604" /></svg>
